Coordinates
version=1
nRows=19
nColumns=24
inDegrees=yes

Units are S.I. units (second, meters, Newtons, ...)
Angles are in degrees.

endheader
time	pelvis_tilt	pelvis_list	pelvis_rotation	pelvis_tx	pelvis_ty	pelvis_tz	hip_flexion_r	hip_adduction_r	hip_rotation_r	knee_angle_r	ankle_angle_r	subtalar_angle_r	mtp_angle_r	hip_flexion_l	hip_adduction_l	hip_rotation_l	knee_angle_l	ankle_angle_l	subtalar_angle_l	mtp_angle_l	lumbar_extension	lumbar_bending	lumbar_rotation
      3.62500000	     -8.22115286	      2.24179674	    -11.60786254	     -2.34511083	     -0.02627172	      0.47171236	     -6.59535922	     -0.57382887	     10.12108099	    -12.15065655	      5.94555766	      3.42229769	      6.89572252	     28.30863863	     -2.32261145	      1.90923222	     -3.68893516	     -6.61605150	      2.28672505	     14.31431437	      4.77251111	     -0.94023619	     10.13269439
      3.63000000	     -8.23066561	      2.36488247	    -11.81884691	     -2.33835075	     -0.02676342	      0.47140194	     -6.68552908	     -0.84738111	     10.12768279	    -12.71019668	      5.77620169	      3.84574777	      7.24127861	     28.34328146	     -2.20558187	      1.86111171	     -4.25071636	     -6.64646951	      2.30651145	     14.34284699	      4.89574281	     -1.06192600	     10.28646960
      3.63500000	     -8.26177686	      2.48969605	    -11.99429886	     -2.33147046	     -0.02727038	      0.47104652	     -6.75815636	     -1.11901416	     10.12951153	    -13.26874546	      5.55433899	      4.26834341	      7.60788759	     28.41342433	     -2.06436307	      1.80467439	     -4.91824352	     -6.74176352	      2.26877915	     14.35977651	      5.05801434	     -1.18530232	     10.43482381
      3.64000000	     -8.30488471	      2.62102471	    -12.15157017	     -2.32451944	     -0.02777627	      0.47067564	     -6.80023337	     -1.38926546	     10.12428456	    -13.86172400	      5.27665491	      4.64548869	      7.97602613	     28.50853890	     -1.90275996	      1.69303432	     -5.66943429	     -6.93774030	      2.16043966	     14.36436059	      5.24199649	     -1.32020923	     10.56239414
      3.64500000	     -8.36044464	      2.76519893	    -12.29466542	     -2.31750961	     -0.02826445	      0.47025372	     -6.80464220	     -1.67008761	     10.09917651	    -14.49042598	      4.94198844	      5.00197975	      8.36614197	     28.62596129	     -1.71796545	      1.51057880	     -6.47643974	     -7.25680220	      2.00555281	     14.35885250	      5.44634573	     -1.46440024	     10.67022620
      3.65000000	     -8.42384035	      2.91907013	    -12.40323672	     -2.31043915	     -0.02871588	      0.46980230	     -6.78030368	     -1.95219086	     10.05127280	    -15.15546827	      4.53225020	      5.33062023	      8.75752535	     28.75552093	     -1.50898661	      1.24626922	     -7.30657428	     -7.71132360	      1.83579893	     14.34046395	      5.66656009	     -1.62752033	     10.75266753
      3.65500000	     -8.50181345	      3.09730816	    -12.48236071	     -2.30332780	     -0.02914366	      0.46924666	     -6.69942811	     -2.25702413	      9.97414252	    -15.88255539	      4.07777189	      5.65765704	      9.21319978	     28.90519268	     -1.26183212	      0.90589157	     -8.13722370	     -8.28769910	      1.63972735	     14.31283615	      5.90734195	     -1.80228045	     10.82770993
      3.66000000	     -8.58570892	      3.29316996	    -12.53502405	     -2.29621466	     -0.02950665	      0.46866735	     -6.57312496	     -2.57227847	      9.86223505	    -16.66143552	      3.54866772	      5.96779008	      9.71192380	     29.06200659	     -0.99430727	      0.52364963	     -8.95335133	     -8.97741171	      1.44796711	     14.27678260	      6.15418370	     -2.00674419	     10.87554365
      3.66500000	     -8.68234749	      3.48189823	    -12.58565972	     -2.28918659	     -0.02980365	      0.46805234	     -6.36153629	     -2.87599283	      9.70259972	    -17.53446929	      2.94739720	      6.30719676	     10.40476814	     29.22244311	     -0.74052174	      0.15730227	     -9.73124325	     -9.76633424	      1.19376832	     14.24568383	      6.39719966	     -2.20241937	     10.89483718
      3.67000000	     -8.76749903	      3.70243973	    -12.57519837	     -2.28206564	     -0.02998086	      0.46737111	     -6.15264836	     -3.20719300	      9.51933423	    -18.41400446	      2.20397468	      6.56624223	     11.03825569	     29.36845888	     -0.42818664	     -0.23596044	    -10.48090365	    -10.56594116	      1.00568650	     14.17199117	      6.64273799	     -2.44081588	     10.90536981
      3.67500000	     -8.84620927	      3.94854237	    -12.54562684	     -2.27493949	     -0.03005954	      0.46667899	     -5.88946894	     -3.55856304	      9.30781837	    -19.37770309	      1.35342411	      6.79498846	     11.71016868	     29.49605688	     -0.08464533	     -0.58606463	    -11.19892309	    -11.31872220	      0.85894773	     14.02564889	      6.88593794	     -2.71395904	     10.89185725
      3.68000000	     -8.90688028	      4.23207005	    -12.49650575	     -2.26774404	     -0.03003872	      0.46602659	     -5.59494924	     -3.93886658	      9.08838916	    -20.41757131	      0.38473936	      6.95125893	     12.28925691	     29.58159297	      0.30406114	     -0.88530534	    -11.87404788	    -11.95240306	      0.78008137	     13.81182279	      7.12637668	     -3.04136419	     10.83167441
      3.68500000	     -8.98827234	      4.46067527	    -12.44091293	     -2.26067382	     -0.02995742	      0.46521509	     -5.21174685	     -4.26997184	      8.81851217	    -21.52310663	     -0.72889150	      7.14755760	     13.22068964	     29.69975056	      0.65923863	     -1.06123860	    -12.58934935	    -12.49483320	      0.59557105	     13.39395400	      7.34569569	     -3.28739255	     10.83385948
      3.69000000	     -9.06597427	      4.70459153	    -12.35598789	     -2.25355145	     -0.02980537	      0.46446340	     -4.79723154	     -4.59995113	      8.56624517	    -22.66393508	     -2.02240983	      7.21018891	     14.25923645	     29.79641951	      1.04466227	     -1.15089560	    -13.29426605	    -12.87554444	      0.44096726	     12.79436734	      7.57092229	     -3.57213248	     10.81903455
      3.69500000	     -9.12304066	      4.92736927	    -12.27764485	     -2.24640121	     -0.02957844	      0.46371305	     -4.35536394	     -4.90367525	      8.33425380	    -23.86330882	     -3.50726958	      7.17776137	     15.32875992	     29.84305566	      1.42042896	     -1.19276501	    -13.98451829	    -13.02467926	      0.29660047	     12.06188308	      7.77217371	     -3.83520480	     10.79054276
      3.70000000	     -9.17314317	      5.13531287	    -12.20431935	     -2.23929784	     -0.02931533	      0.46298883	     -3.85935052	     -5.17903679	      8.13671021	    -25.13621283	     -5.14067512	      7.06189092	     16.44781131	     29.86713653	      1.78609975	     -1.19796333	    -14.67210832	    -12.99335854	      0.13559193	     11.22159156	      7.95129989	     -4.08682085	     10.78394410
      3.70500000	     -9.21377349	      5.32124242	    -12.13570105	     -2.23222343	     -0.02902091	      0.46228910	     -3.31963246	     -5.41743310	      7.97778486	    -26.46764393	     -6.94589798	      6.85119199	     17.61066197	     29.85735474	      2.13453191	     -1.18645400	    -15.34448944	    -12.78319377	     -0.03474467	     10.33096871	      8.11109781	     -4.31824974	     10.78729378
      3.71000000	     -9.24971443	      5.49807762	    -12.07401721	     -2.22520651	     -0.02872122	      0.46163473	     -2.72565219	     -5.62732155	      7.86269700	    -27.86115625	     -8.88702162	      6.54151275	     18.80234173	     29.81949828	      2.47312158	     -1.16947341	    -15.99313062	    -12.42740549	     -0.20532155	      9.44505197	      8.25188471	     -4.54387076	     10.79458307
      3.71500000	     -9.28318541	      5.67178173	    -12.02236320	     -2.21824667	     -0.02841318	      0.46101565	     -2.06990632	     -5.81359711	      7.79117219	    -29.32672528	    -10.94447315	      6.15807506	     19.92797355	     29.74538537	      2.80695409	     -1.14256447	    -16.59066048	    -11.98081986	     -0.38982917	      8.64270353	      8.38253247	     -4.76824196	     10.81639387
